<mxfile host="app.diagrams.net" modified="2023-06-15T05:28:43.575Z" agent="Mozilla/5.0 (Linux; Android 10; K) AppleWebKit/537.36 (KHTML, like Gecko) Chrome/114.0.0.0 Safari/537.36" etag="DGdm0bULvx6puzWjs7Yo" version="21.4.0" type="github" pages="2">
  <diagram id="C5RBs43oDa-KdzZeNtuy" name="Page-1">
    <mxGraphModel dx="668" dy="601" grid="1" gridSize="10" guides="1" tooltips="1" connect="1" arrows="1" fold="1" page="1" pageScale="1" pageWidth="827" pageHeight="1169" math="0" shadow="0">
      <root>
        <mxCell id="WIyWlLk6GJQsqaUBKTNV-0" />
        <mxCell id="WIyWlLk6GJQsqaUBKTNV-1" parent="WIyWlLk6GJQsqaUBKTNV-0" />
        <mxCell id="WIyWlLk6GJQsqaUBKTNV-2" value="" style="rounded=0;html=1;jettySize=auto;orthogonalLoop=1;fontSize=11;endArrow=block;endFill=0;endSize=8;strokeWidth=1;shadow=0;labelBackgroundColor=none;edgeStyle=orthogonalEdgeStyle;entryX=0.5;entryY=0;entryDx=0;entryDy=0;" parent="WIyWlLk6GJQsqaUBKTNV-1" source="WIyWlLk6GJQsqaUBKTNV-3" target="GSnDaTGisuVbNJ6zyoTn-40" edge="1">
          <mxGeometry relative="1" as="geometry">
            <mxPoint x="340" y="120" as="targetPoint" />
          </mxGeometry>
        </mxCell>
        <mxCell id="WIyWlLk6GJQsqaUBKTNV-3" value="START" style="rounded=1;whiteSpace=wrap;html=1;fontSize=12;glass=0;strokeWidth=1;shadow=0;" parent="WIyWlLk6GJQsqaUBKTNV-1" vertex="1">
          <mxGeometry x="279.85" y="40" width="120" height="40" as="geometry" />
        </mxCell>
        <mxCell id="GSnDaTGisuVbNJ6zyoTn-1" value="Task == True?" style="rhombus;whiteSpace=wrap;html=1;shadow=0;strokeColor=default;strokeWidth=1;fontFamily=Helvetica;fontSize=12;fontColor=default;fillColor=default;" vertex="1" parent="WIyWlLk6GJQsqaUBKTNV-1">
          <mxGeometry x="294.85" y="470" width="90" height="80" as="geometry" />
        </mxCell>
        <mxCell id="GSnDaTGisuVbNJ6zyoTn-7" value="" style="edgeStyle=none;orthogonalLoop=1;jettySize=auto;html=1;rounded=0;fontFamily=Helvetica;fontSize=12;fontColor=default;startSize=8;endSize=8;curved=1;exitX=1;exitY=0.5;exitDx=0;exitDy=0;" edge="1" parent="WIyWlLk6GJQsqaUBKTNV-1" source="GSnDaTGisuVbNJ6zyoTn-1">
          <mxGeometry width="140" relative="1" as="geometry">
            <mxPoint x="279.85" y="540" as="sourcePoint" />
            <mxPoint x="510" y="510" as="targetPoint" />
            <Array as="points" />
          </mxGeometry>
        </mxCell>
        <mxCell id="GSnDaTGisuVbNJ6zyoTn-8" value="" style="edgeStyle=none;orthogonalLoop=1;jettySize=auto;html=1;rounded=0;fontFamily=Helvetica;fontSize=12;fontColor=default;startSize=8;endSize=8;curved=1;exitX=0.5;exitY=1;exitDx=0;exitDy=0;" edge="1" parent="WIyWlLk6GJQsqaUBKTNV-1" source="GSnDaTGisuVbNJ6zyoTn-1">
          <mxGeometry width="140" relative="1" as="geometry">
            <mxPoint x="279.85" y="540" as="sourcePoint" />
            <mxPoint x="339.85" y="620" as="targetPoint" />
            <Array as="points">
              <mxPoint x="339.85" y="580" />
            </Array>
          </mxGeometry>
        </mxCell>
        <mxCell id="GSnDaTGisuVbNJ6zyoTn-9" value="Yes" style="text;strokeColor=none;fillColor=none;html=1;align=center;verticalAlign=middle;whiteSpace=wrap;rounded=0;fontSize=12;fontFamily=Helvetica;fontColor=default;rotation=-90;" vertex="1" parent="WIyWlLk6GJQsqaUBKTNV-1">
          <mxGeometry x="299.85" y="570" width="50" height="20" as="geometry" />
        </mxCell>
        <mxCell id="GSnDaTGisuVbNJ6zyoTn-12" value="No" style="text;strokeColor=none;fillColor=none;html=1;align=center;verticalAlign=middle;whiteSpace=wrap;rounded=0;fontSize=12;fontFamily=Helvetica;fontColor=default;rotation=0;" vertex="1" parent="WIyWlLk6GJQsqaUBKTNV-1">
          <mxGeometry x="384.85" y="470" width="70" height="50" as="geometry" />
        </mxCell>
        <mxCell id="GSnDaTGisuVbNJ6zyoTn-16" value="" style="edgeStyle=none;curved=1;rounded=0;orthogonalLoop=1;jettySize=auto;html=1;fontFamily=Helvetica;fontSize=12;fontColor=default;startSize=8;endSize=8;" edge="1" parent="WIyWlLk6GJQsqaUBKTNV-1" source="GSnDaTGisuVbNJ6zyoTn-15" target="GSnDaTGisuVbNJ6zyoTn-1">
          <mxGeometry relative="1" as="geometry" />
        </mxCell>
        <mxCell id="GSnDaTGisuVbNJ6zyoTn-15" value="Not Setting&amp;nbsp;" style="rounded=1;whiteSpace=wrap;html=1;shadow=0;strokeColor=default;strokeWidth=1;fontFamily=Helvetica;fontSize=12;fontColor=default;fillColor=default;" vertex="1" parent="WIyWlLk6GJQsqaUBKTNV-1">
          <mxGeometry x="284.85" y="390" width="110" height="40" as="geometry" />
        </mxCell>
        <mxCell id="GSnDaTGisuVbNJ6zyoTn-20" value="" style="edgeStyle=none;curved=1;rounded=0;orthogonalLoop=1;jettySize=auto;html=1;fontFamily=Helvetica;fontSize=12;fontColor=default;startSize=8;endSize=8;" edge="1" parent="WIyWlLk6GJQsqaUBKTNV-1" source="GSnDaTGisuVbNJ6zyoTn-18" target="GSnDaTGisuVbNJ6zyoTn-19">
          <mxGeometry relative="1" as="geometry" />
        </mxCell>
        <mxCell id="GSnDaTGisuVbNJ6zyoTn-18" value="For loop&amp;nbsp;" style="rounded=1;whiteSpace=wrap;html=1;shadow=0;strokeColor=default;strokeWidth=1;fontFamily=Helvetica;fontSize=12;fontColor=default;fillColor=default;" vertex="1" parent="WIyWlLk6GJQsqaUBKTNV-1">
          <mxGeometry x="279.85" y="620" width="120" height="40" as="geometry" />
        </mxCell>
        <mxCell id="GSnDaTGisuVbNJ6zyoTn-22" value="" style="edgeStyle=none;curved=1;rounded=0;orthogonalLoop=1;jettySize=auto;html=1;fontFamily=Helvetica;fontSize=12;fontColor=default;startSize=8;endSize=8;" edge="1" parent="WIyWlLk6GJQsqaUBKTNV-1" source="GSnDaTGisuVbNJ6zyoTn-19" target="GSnDaTGisuVbNJ6zyoTn-21">
          <mxGeometry relative="1" as="geometry" />
        </mxCell>
        <mxCell id="GSnDaTGisuVbNJ6zyoTn-30" value="" style="edgeStyle=none;curved=1;rounded=0;orthogonalLoop=1;jettySize=auto;html=1;fontFamily=Helvetica;fontSize=12;fontColor=default;startSize=8;endSize=8;" edge="1" parent="WIyWlLk6GJQsqaUBKTNV-1" source="GSnDaTGisuVbNJ6zyoTn-19" target="GSnDaTGisuVbNJ6zyoTn-29">
          <mxGeometry relative="1" as="geometry" />
        </mxCell>
        <mxCell id="GSnDaTGisuVbNJ6zyoTn-19" value="i &amp;lt; round?" style="rhombus;whiteSpace=wrap;html=1;shadow=0;strokeColor=default;strokeWidth=1;fontFamily=Helvetica;fontSize=12;fontColor=default;fillColor=default;" vertex="1" parent="WIyWlLk6GJQsqaUBKTNV-1">
          <mxGeometry x="299.85" y="690" width="80" height="80" as="geometry" />
        </mxCell>
        <mxCell id="GSnDaTGisuVbNJ6zyoTn-24" value="" style="edgeStyle=none;curved=1;rounded=0;orthogonalLoop=1;jettySize=auto;html=1;fontFamily=Helvetica;fontSize=12;fontColor=default;startSize=8;endSize=8;" edge="1" parent="WIyWlLk6GJQsqaUBKTNV-1" source="GSnDaTGisuVbNJ6zyoTn-21" target="GSnDaTGisuVbNJ6zyoTn-23">
          <mxGeometry relative="1" as="geometry" />
        </mxCell>
        <mxCell id="GSnDaTGisuVbNJ6zyoTn-21" value="&lt;font style=&quot;font-size: 15px;&quot;&gt;Stepper spin&amp;nbsp;&lt;/font&gt;" style="rounded=1;whiteSpace=wrap;html=1;shadow=0;strokeWidth=1;fontSize=16;" vertex="1" parent="WIyWlLk6GJQsqaUBKTNV-1">
          <mxGeometry x="469.85" y="710" width="121" height="40" as="geometry" />
        </mxCell>
        <mxCell id="GSnDaTGisuVbNJ6zyoTn-25" value="" style="edgeStyle=none;curved=1;rounded=0;orthogonalLoop=1;jettySize=auto;html=1;fontFamily=Helvetica;fontSize=12;fontColor=default;startSize=8;endSize=8;" edge="1" parent="WIyWlLk6GJQsqaUBKTNV-1" source="GSnDaTGisuVbNJ6zyoTn-23" target="GSnDaTGisuVbNJ6zyoTn-18">
          <mxGeometry relative="1" as="geometry" />
        </mxCell>
        <mxCell id="GSnDaTGisuVbNJ6zyoTn-23" value="i++&lt;br&gt;cycle++" style="whiteSpace=wrap;html=1;fontSize=16;rounded=1;shadow=0;strokeWidth=1;" vertex="1" parent="WIyWlLk6GJQsqaUBKTNV-1">
          <mxGeometry x="485.3500000000001" y="615" width="90" height="50" as="geometry" />
        </mxCell>
        <mxCell id="GSnDaTGisuVbNJ6zyoTn-26" value="Yes" style="text;strokeColor=none;fillColor=none;html=1;align=center;verticalAlign=middle;whiteSpace=wrap;rounded=0;fontSize=12;fontFamily=Helvetica;fontColor=default;rotation=0;" vertex="1" parent="WIyWlLk6GJQsqaUBKTNV-1">
          <mxGeometry x="394.85" y="710" width="50" height="17.5" as="geometry" />
        </mxCell>
        <mxCell id="GSnDaTGisuVbNJ6zyoTn-29" value="Last spin (slow)" style="rounded=1;whiteSpace=wrap;html=1;shadow=0;strokeWidth=1;fontSize=16;" vertex="1" parent="WIyWlLk6GJQsqaUBKTNV-1">
          <mxGeometry x="279.85" y="834" width="120" height="36" as="geometry" />
        </mxCell>
        <mxCell id="GSnDaTGisuVbNJ6zyoTn-31" value="No" style="text;strokeColor=none;fillColor=none;html=1;align=center;verticalAlign=middle;whiteSpace=wrap;rounded=0;fontSize=12;fontFamily=Helvetica;fontColor=default;rotation=-90;" vertex="1" parent="WIyWlLk6GJQsqaUBKTNV-1">
          <mxGeometry x="299.85" y="780" width="50" height="20" as="geometry" />
        </mxCell>
        <mxCell id="GSnDaTGisuVbNJ6zyoTn-36" value="" style="edgeStyle=segmentEdgeStyle;endArrow=classic;html=1;curved=0;rounded=0;endSize=8;startSize=8;sourcePerimeterSpacing=0;targetPerimeterSpacing=0;fontFamily=Helvetica;fontSize=12;fontColor=default;exitX=0.5;exitY=1;exitDx=0;exitDy=0;entryX=0;entryY=0.5;entryDx=0;entryDy=0;" edge="1" parent="WIyWlLk6GJQsqaUBKTNV-1" source="GSnDaTGisuVbNJ6zyoTn-29" target="WIyWlLk6GJQsqaUBKTNV-3">
          <mxGeometry width="140" relative="1" as="geometry">
            <mxPoint x="429.85" y="280" as="sourcePoint" />
            <mxPoint x="569.85" y="340" as="targetPoint" />
            <Array as="points">
              <mxPoint x="340" y="920" />
              <mxPoint x="140" y="920" />
              <mxPoint x="140" y="60" />
            </Array>
          </mxGeometry>
        </mxCell>
        <mxCell id="GSnDaTGisuVbNJ6zyoTn-41" value="" style="edgeStyle=none;curved=1;rounded=0;orthogonalLoop=1;jettySize=auto;html=1;fontFamily=Helvetica;fontSize=12;fontColor=default;startSize=8;endSize=8;" edge="1" parent="WIyWlLk6GJQsqaUBKTNV-1" source="GSnDaTGisuVbNJ6zyoTn-40">
          <mxGeometry relative="1" as="geometry">
            <mxPoint x="340" y="390" as="targetPoint" />
          </mxGeometry>
        </mxCell>
        <mxCell id="GSnDaTGisuVbNJ6zyoTn-40" value="int&amp;nbsp;p&amp;nbsp;=700;&amp;nbsp;&amp;nbsp;&lt;br&gt;&amp;nbsp;int&amp;nbsp;but1,but2,but3,but4,but5;&amp;nbsp;&lt;br&gt;&amp;nbsp;int&amp;nbsp;rnd,frame,dlay,spd&amp;nbsp;=&amp;nbsp;0;&amp;nbsp;&lt;br&gt;&amp;nbsp;int&amp;nbsp;cycle&amp;nbsp;=&amp;nbsp;1;&amp;nbsp;&lt;br&gt;&amp;nbsp;int&amp;nbsp;i&amp;nbsp;=&amp;nbsp;0;&amp;nbsp;//&amp;nbsp;for&amp;nbsp;menu&amp;nbsp;&lt;br&gt;&amp;nbsp;bool&amp;nbsp;select&amp;nbsp;=&amp;nbsp;false;&amp;nbsp;&lt;br&gt;&amp;nbsp;int&amp;nbsp;blinks&amp;nbsp;=&amp;nbsp;0;&amp;nbsp;&lt;br&gt;&amp;nbsp;int&amp;nbsp;blinks_time&amp;nbsp;=&amp;nbsp;7;&amp;nbsp;&lt;br&gt;&amp;nbsp;int&amp;nbsp;dodge&amp;nbsp;=&amp;nbsp;3;&amp;nbsp;&lt;br&gt;&amp;nbsp;&amp;nbsp;&lt;br&gt;&amp;nbsp;int&amp;nbsp;num_spd[5]&amp;nbsp;=&amp;nbsp;{0,6,&amp;nbsp;7,&amp;nbsp;8,&amp;nbsp;9&amp;nbsp;};&amp;nbsp;&lt;br&gt;&amp;nbsp;int&amp;nbsp;num_dlay[5]&amp;nbsp;=&amp;nbsp;{0,600,&amp;nbsp;700,&amp;nbsp;800,&amp;nbsp;900};&amp;nbsp;&lt;br&gt;&amp;nbsp;int&amp;nbsp;keep,keep2;&amp;nbsp;&lt;br&gt;&amp;nbsp;bool&amp;nbsp;task&amp;nbsp;=&amp;nbsp;false;" style="rounded=1;whiteSpace=wrap;html=1;shadow=0;strokeColor=default;strokeWidth=1;fontFamily=Helvetica;fontSize=12;fontColor=default;fillColor=default;" vertex="1" parent="WIyWlLk6GJQsqaUBKTNV-1">
          <mxGeometry x="204.85" y="130" width="270" height="220" as="geometry" />
        </mxCell>
        <mxCell id="sVOcNNENYaHEENW3tDD7-0" value="Setting function" style="ellipse;whiteSpace=wrap;html=1;shadow=0;strokeColor=default;strokeWidth=1;fontFamily=Helvetica;fontSize=12;fontColor=default;fillColor=default;" vertex="1" parent="WIyWlLk6GJQsqaUBKTNV-1">
          <mxGeometry x="540" y="530" width="80" height="80" as="geometry" />
        </mxCell>
      </root>
    </mxGraphModel>
  </diagram>
  <diagram id="jAzT_HGL4EGFrYdmddWQ" name="หน้า-2">
    <mxGraphModel dx="601" dy="541" grid="0" gridSize="10" guides="1" tooltips="1" connect="1" arrows="1" fold="1" page="0" pageScale="1" pageWidth="827" pageHeight="1169" math="0" shadow="0">
      <root>
        <mxCell id="0" />
        <mxCell id="1" parent="0" />
      </root>
    </mxGraphModel>
  </diagram>
</mxfile>
